<svg xmlns="http://www.w3.org/2000/svg" viewBox="0 0 64 64">
  <rect width="64" height="64" rx="16" fill="#FED835" />
  <g transform="translate(12, 14) scale(0.07)">
    <path d="M576 136c0 22.09-17.91 40-40 40c-.21 0-.42 0-.63 0L495.7 352H80.29L40.63 176c-.21 0-.42 0-.63 0c-22.09 0-40-17.91-40-40s17.91-40 40-40s40 17.91 40 40c0 1.5-.13 2.97-.33 4.41l56.33 250.32L288 288l151.99 142.73l56.33-250.32c-.21-1.44-.33-2.91-.33-4.41c0-22.09 17.91-40 40-40s40 17.91 40 40zm-288 152a40 40 0 1 0 0-80 40 40 0 0 0 0 80z" fill="#000000" />
  </g>
</svg>
